<svg xmlns="http://www.w3.org/2000/svg" width="40" height="40" fill="none"><path fill="#85EE00" d="M25.178 1.054 21.232 0l-3.326 12.37-3.003-11.168-3.946 1.054L14.2 14.322 6.12 6.269l-2.89 2.88 8.864 8.832-11.038-2.947L0 18.967l12.06 3.22a8.143 8.143 0 0 1-.212-1.847c0-4.498 3.659-8.144 8.172-8.144 4.513 0 8.171 3.646 8.171 8.144 0 .631-.072 1.246-.208 1.836l10.96 2.926L40 21.17l-12.108-3.233 11.039-2.947-1.058-3.934-12.107 3.234 8.08-8.053-2.889-2.88-8.74 8.711 2.961-11.013Z"/><path fill="#85EE00" d="M27.97 22.222a8.119 8.119 0 0 1-2.032 3.732l7.94 7.913 2.889-2.879-8.797-8.766Zm-2.112 3.814a8.17 8.17 0 0 1-3.651 2.152l2.89 10.746 3.946-1.054-3.185-11.844Zm-3.798 2.191a8.212 8.212 0 0 1-2.04.256 8.206 8.206 0 0 1-2.179-.293l-2.892 10.756L18.896 40l3.165-11.773Zm-4.357-.076a8.175 8.175 0 0 1-3.587-2.183L6.156 33.9l2.89 2.88 8.657-8.629Zm-3.655-2.254a8.117 8.117 0 0 1-1.982-3.686L1.07 25.147l1.058 3.933 11.92-3.183Z"/></svg>