<svg xmlns="http://www.w3.org/2000/svg" width="841" height="259" fill="none"><path fill="#fff" d="M28.656 182.235v75.139H0V41.066h60.895c9.118 0 17.91 1.843 26.377 5.53 8.466 3.47 15.956 8.457 22.469 14.962 6.512 6.723 11.506 14.42 14.979 23.095 3.691 8.457 5.536 17.456 5.536 26.998 0 9.541-1.845 18.649-5.536 27.323-3.473 8.457-8.467 15.938-14.979 22.444-6.513 6.505-14.003 11.601-22.47 15.287-8.466 3.687-17.258 5.53-26.376 5.53H28.656Zm0-111.57v82.621h32.239c11.288 0 20.84-4.12 28.656-12.361 8.032-8.023 12.049-17.781 12.049-29.274 0-11.277-4.017-20.926-12.049-28.95-8.032-8.023-17.585-12.035-28.656-12.035H28.656ZM225.732 259c-11.072 0-21.601-2.168-31.587-6.505s-18.779-10.301-26.377-17.891c-7.598-7.589-13.568-16.372-17.91-26.347-4.342-9.975-6.513-20.492-6.513-31.552 0-11.276 2.171-22.01 6.513-32.202 4.342-10.192 10.312-19.083 17.91-26.672 7.598-7.59 16.391-13.445 26.377-17.565 9.986-4.337 20.515-6.506 31.587-6.506 11.289 0 22.035 2.169 32.238 6.506 10.204 4.12 19.105 9.975 26.703 17.565 7.598 7.589 13.46 16.48 17.584 26.672 4.342 10.192 6.513 20.926 6.513 32.202 0 11.06-2.171 21.577-6.513 31.552-4.124 9.975-9.986 18.758-17.584 26.347-7.598 7.59-16.499 13.554-26.703 17.891-10.203 4.337-20.949 6.505-32.238 6.505Zm0-136.29c-14.545 0-27.028 5.204-37.449 15.613-4.993 4.988-8.9 10.843-11.723 17.565-2.822 6.722-4.233 13.661-4.233 20.817 0 7.157 1.411 13.987 4.233 20.493 2.823 6.505 6.73 12.252 11.723 17.239 4.994 4.988 10.638 8.891 16.934 11.71 6.513 2.819 13.351 4.229 20.515 4.229s14.111-1.41 20.841-4.229 12.483-6.722 17.259-11.71c4.776-4.987 8.575-10.734 11.397-17.239 2.823-6.506 4.234-13.336 4.234-20.493 0-7.156-1.411-14.095-4.234-20.817-2.822-6.722-6.621-12.577-11.397-17.565-4.776-4.987-10.529-8.782-17.259-11.385-6.513-2.819-13.46-4.228-20.841-4.228Zm184.928 3.253c-5.21-2.386-9.878-3.578-14.003-3.578-8.683 0-15.847 3.036-21.492 9.107-6.078 6.506-9.118 13.987-9.118 22.444v103.438h-28.005V153.936c0-11.71 2.931-22.444 8.792-32.202 6.079-9.758 14.329-17.348 24.749-22.77 7.815-3.686 16.174-5.529 25.074-5.529 7.164 0 14.003 1.301 20.516 3.903 6.512 2.603 13.351 6.831 20.515 12.686l-27.028 15.939Zm102.159-1.952v133.363H485.14V124.011h-24.423V94.736h24.423v-53.67h27.679v53.67h24.423v29.275h-24.423Zm50.614 133.363v-26.348l91.505-106.039h-91.505v-28.95h131.885v26.673l-91.18 105.714h91.18v28.95H563.433ZM779.5 18.947h-6.757v35.13h-5.617v-35.13h-6.757v-5.53h6.757V0h5.617v13.418h6.757v5.53Zm46.602-5.529c2.714 0 5.21.677 7.49 2.033 2.279 1.3 4.07 3.117 5.373 5.448 1.357 2.277 2.035 4.77 2.035 7.481v25.697h-5.536V28.38c0-2.602-.923-4.798-2.768-6.587-1.845-1.843-4.043-2.764-6.594-2.764-2.605 0-4.83.921-6.676 2.764-1.791 1.79-2.686 3.958-2.686 6.506v25.778h-5.617V28.299c0-2.548-.923-4.717-2.768-6.506-1.846-1.843-4.044-2.764-6.595-2.764-2.55 0-4.749.948-6.594 2.846-1.845 1.843-2.768 4.066-2.768 6.668v25.534h-5.536V14.475h5.536v3.171c1.086-1.3 2.47-2.331 4.152-3.09 1.737-.759 3.474-1.138 5.21-1.138 2.443 0 4.722.569 6.839 1.707 2.171 1.139 3.935 2.657 5.291 4.554a15.89 15.89 0 0 1 5.292-4.554 14.69 14.69 0 0 1 6.92-1.707Z"/></svg>